<svg width="520" height="170" viewBox="0 0 520 170" fill="none" xmlns="http://www.w3.org/2000/svg" role="img" aria-labelledby="title desc">
  <title id="title">Public repository language share</title>
  <desc id="desc">Generated daily from GitHub public repository language data.</desc>
  <style>
    .title { fill: #24292f; font: 600 16px -apple-system, BlinkMacSystemFont, "Segoe UI", sans-serif; }
    .caption { fill: #57606a; font: 12px -apple-system, BlinkMacSystemFont, "Segoe UI", sans-serif; }
    .label { fill: #24292f; font: 13px -apple-system, BlinkMacSystemFont, "Segoe UI", sans-serif; }
    .percent { fill: #57606a; font: 12px ui-monospace, SFMono-Regular, Consolas, monospace; }
    @media (prefers-color-scheme: dark) {
      .title, .label { fill: #f0f6fc; }
      .caption, .percent { fill: #8b949e; }
    }
  </style>
  <text x="24" y="24" class="title">Language Share</text>
  <text x="496" y="24" class="caption" text-anchor="end">public repos</text>
  <clipPath id="bar"><rect x="24" y="40" width="472" height="10" rx="5" /></clipPath>
  <g clip-path="url(#bar)">
    <rect x="24.00" y="40" width="422.83" height="10" fill="#3178c6" /><rect x="446.83" y="40" width="16.09" height="10" fill="#00add8" /><rect x="462.91" y="40" width="15.79" height="10" fill="#663399" /><rect x="478.70" y="40" width="6.83" height="10" fill="#f1e05a" /><rect x="485.54" y="40" width="6.19" height="10" fill="#555555" /><rect x="491.72" y="40" width="1.72" height="10" fill="#b07219" /><rect x="493.45" y="40" width="1.13" height="10" fill="#384d54" /><rect x="494.58" y="40" width="1.42" height="10" fill="#89e051" />
  </g>
  <circle cx="30" cy="70" r="5" fill="#3178c6" /><text x="42" y="74"><tspan class="label">TypeScript</tspan><tspan class="percent"> 89.6%</tspan></text><circle cx="186" cy="70" r="5" fill="#00add8" /><text x="198" y="74"><tspan class="label">Go</tspan><tspan class="percent"> 3.4%</tspan></text><circle cx="342" cy="70" r="5" fill="#663399" /><text x="354" y="74"><tspan class="label">CSS</tspan><tspan class="percent"> 3.3%</tspan></text><circle cx="30" cy="96" r="5" fill="#f1e05a" /><text x="42" y="100"><tspan class="label">JavaScript</tspan><tspan class="percent"> 1.4%</tspan></text><circle cx="186" cy="96" r="5" fill="#555555" /><text x="198" y="100"><tspan class="label">C</tspan><tspan class="percent"> 1.3%</tspan></text><circle cx="342" cy="96" r="5" fill="#b07219" /><text x="354" y="100"><tspan class="label">Java</tspan><tspan class="percent"> 0.4%</tspan></text><circle cx="30" cy="122" r="5" fill="#384d54" /><text x="42" y="126"><tspan class="label">Dockerfile</tspan><tspan class="percent"> 0.2%</tspan></text><circle cx="186" cy="122" r="5" fill="#89e051" /><text x="198" y="126"><tspan class="label">Shell</tspan><tspan class="percent"> 0.2%</tspan></text>
</svg>
